PathFileType	4	(X/Y/Z)	S01_0012_Gait_markers.trc
DataRate	CameraRate	NumFrames	NumMarkers	Units	OrigDataRate	OrigDataStartFrame	OrigNumFrames
250.000000	250.000000	4	54	mm	250.000000	240	321
Frame#	Time	HEAD_ANT			R_HEAD			L_HEAD			C7			R_BACK			L_BACK			STERNUM			R_ACROMION			R_HUM_PROX			R_HUM_ANT			R_HUM_POST			R_ELBOW_LAT			R_ELBOW_MED			R_FOREARM			R_WIRST_LAT			R_WRITS_MED			R_HAND			L_ACROMION			L_HUM_PROX			L_HUM_ANT			L_HUM_POST			L_ELBOW_LAT			L_ELBOW_MED			L_FOREARM			L_WRIST_LAT			L_WIRST_MED			L_HAND			R_ILIAC			SACRUM			L_ILIAC			R_GTROCH			R_THIGH__1			R_THIGH_2			R_THIGH_3			R_THIGH_4			R_SHANK_1			R_SHANK_2			R_SHANK_3			R_SHANK_4			R_HEEL			R_FOOT_LAT			R_FOOT_MED			L_GTROCH			L_THIGH_1			L_THIGH_2			L_THIGH_3			L_THIGH_4			L_SHANK_1			L_SHANK_2			L_SHANK_3			L_SHANK_4			L_HEEL			L_FOOT_LAT			L_FOOT_MED			
		X1	Y1	Z1	X2	Y2	Z2	X3	Y3	Z3	X4	Y4	Z4	X5	Y5	Z5	X6	Y6	Z6	X7	Y7	Z7	X8	Y8	Z8	X9	Y9	Z9	X10	Y10	Z10	X11	Y11	Z11	X12	Y12	Z12	X13	Y13	Z13	X14	Y14	Z14	X15	Y15	Z15	X16	Y16	Z16	X17	Y17	Z17	X18	Y18	Z18	X19	Y19	Z19	X20	Y20	Z20	X21	Y21	Z21	X22	Y22	Z22	X23	Y23	Z23	X24	Y24	Z24	X25	Y25	Z25	X26	Y26	Z26	X27	Y27	Z27	X28	Y28	Z28	X29	Y29	Z29	X30	Y30	Z30	X31	Y31	Z31	X32	Y32	Z32	X33	Y33	Z33	X34	Y34	Z34	X35	Y35	Z35	X36	Y36	Z36	X37	Y37	Z37	X38	Y38	Z38	X39	Y39	Z39	X40	Y40	Z40	X41	Y41	Z41	X42	Y42	Z42	X43	Y43	Z43	X44	Y44	Z44	X45	Y45	Z45	X46	Y46	Z46	X47	Y47	Z47	X48	Y48	Z48	X49	Y49	Z49	X50	Y50	Z50	X51	Y51	Z51	X52	Y52	Z52	X53	Y53	Z53	X54	Y54	Z54	

241	0.96	1538.866943359375	1754.479125976562	-365.3621215820309	1479.956665039062	1703.812255859375	-286.2680969238277	1479.599609375	1705.323974609375	-434.3517761230465	1340.353515625	1534.26220703125	-363.065032958984	1268.544799804688	1338.261962890625	-293.352600097656	1270.21337890625	1341.55615234375	-438.5056457519528	1520.414794921875	1374.990478515625	-355.8238220214841	1410.907836914062	1490.162353515625	-187.4861907958981	1359.1650390625	1333.720825195312	-95.13156127929658	1415.6025390625	1245.245849609375	-85.80530548095676	1294.517944335938	1254.44189453125	-85.19993591308565	1334.547485351562	1145.795166015625	-72.24007415771459	1314.523315429688	1141.655517578125	-152.845031738281	1430.173828125	958.6181030273438	-68.8423614501951	1465.479248046875	892.2944946289062	-110.2911224365232	1399.513061523438	869.913330078125	-68.67076110839824	1468.169677734375	802.001708984375	-58.07918548583967	1427.779541015625	1488.499145507813	-525.5718994140622	1413.4296875	1322.230102539063	-624.3399047851559	1475.141235351562	1241.082275390625	-617.4567260742185	1356.583618164062	1244.785522460938	-654.4557495117185	1416.3271484375	1140.527709960938	-656.9394531249998	1360.427368164062	1132.4912109375	-604.435607910156	1534.811401367188	976.7225341796876	-615.4842529296873	1565.888061523438	923.5492553710939	-558.1087646484373	1530.094970703125	891.9331054687501	-621.4049072265623	1612.534790039062	847.7268676757814	-596.8391113281248	1412.905639648438	1088.458129882812	-188.4312286376951	1283.395751953125	1056.479858398438	-355.4081115722654	1408.777587890625	1081.25244140625	-530.3253173828123	1375.117919921875	934.583740234375	-168.8697204589842	1492.184814453125	666.9075927734375	-183.2577819824217	1543.46337890625	697.1071166992188	-180.3698425292967	1573.549072265625	597.1494140625	-207.3001251220702	1510.675048828125	587.767578125	-199.5546569824217	1467.058715820312	380.8788757324219	-193.8517150878905	1514.620849609375	345.7323303222657	-209.5892028808593	1487.673583984375	265.7932128906251	-226.5125579833984	1428.754272460938	288.7160949707032	-215.1983489990234	1338.72705078125	93.45004272460945	-300.8250732421875	1486.831787109375	36.04021453857427	-211.9701385498047	1541.220092773438	45.12977981567389	-298.2633056640625	1370.907958984375	967.2791748046876	-533.5477294921873	1431.611083984375	674.1533813476564	-509.7093200683592	1380.332763671875	698.8418579101564	-526.5797729492186	1353.043579101562	599.7864990234376	-493.065948486328	1415.551635742188	594.9765625000001	-482.3416748046874	1329.771850585938	332.2797851562501	-470.4241943359374	1270.124389648438	320.6678771972657	-473.4702148437499	1252.542114257812	237.2278442382814	-453.9298095703124	1315.225463867188	233.3973999023438	-443.7842102050781	1182.083618164062	60.01149749755868	-376.4066162109375	1355.761596679688	19.05125617980967	-445.4769897460938	1393.134399414062	29.19503211975105	-337.8959350585938	
242	0.964	1544.5771484375	1753.888793945312	-364.9811401367184	1485.399047851562	1703.208129882812	-286.1530151367184	1485.277954101562	1704.980346679688	-434.1498107910152	1345.891479492188	1533.795654296875	-363.0777893066403	1274.365234375	1337.78076171875	-293.3182678222653	1275.789794921875	1341.2197265625	-438.8839721679685	1525.898193359375	1374.412963867188	-355.6017150878903	1416.238159179688	1489.789794921875	-187.7141113281247	1363.893188476562	1333.334838867188	-95.2390365600583	1420.251953125	1244.751708984375	-85.78127288818332	1299.306030273438	1254.043212890625	-85.63305664062472	1339.558227539062	1145.442993164062	-72.43122863769506	1319.117431640625	1141.396728515625	-153.3021392822263	1434.601196289062	958.251220703125	-68.63883972167947	1469.9892578125	891.9286499023438	-109.7613830566404	1403.694580078125	869.4657592773438	-68.59854888915996	1471.667724609375	801.4114990234375	-57.03128814697248	1433.653686523438	1488.143432617188	-525.6275634765622	1419.784545898438	1321.89794921875	-624.5151367187497	1481.33251953125	1240.737060546875	-617.241516113281	1363.135864257812	1244.385009765625	-654.792541503906	1422.682983398438	1140.30322265625	-657.0211181640623	1365.254638671875	1132.61328125	-604.9254150390623	1541.9462890625	977.0041503906251	-614.9728393554685	1573.001220703125	924.0261840820314	-557.350402832031	1537.75244140625	892.1491088867189	-620.5422363281248	1620.15478515625	848.3115844726564	-595.740539550781	1418.707397460938	1088.189453125	-188.5098419189451	1288.80908203125	1055.962768554688	-355.1590881347654	1411.658447265625	1080.708984375	-530.4147338867185	1380.77099609375	934.120361328125	-168.7690582275389	1498.677490234375	666.6935424804688	-183.6558990478514	1549.9814453125	696.925048828125	-180.8417053222655	1580.382934570312	597.376953125	-207.9560546874999	1518.115112304688	588.222412109375	-200.2430419921874	1477.5703125	379.3948669433594	-194.3347930908202	1525.76220703125	345.2405700683594	-209.8418579101562	1500.927978515625	264.5556945800782	-226.6882019042968	1441.374755859375	285.9735107421876	-215.7987823486328	1354.962036132812	88.35963439941413	-299.8809509277344	1505.423950195312	34.21757125854497	-212.1617431640625	1559.769287109375	44.91532516479499	-298.543701171875	1375.853271484375	967.0240478515626	-533.4127197265623	1433.837646484375	673.7511596679689	-510.064971923828	1382.981567382812	699.2061767578126	-527.2214355468749	1354.6904296875	599.9702758789064	-492.9625854492186	1417.359130859375	594.5899047851564	-482.609649658203	1330.130249023438	332.7229309082032	-470.5703735351562	1270.42431640625	321.2658996582032	-473.4273681640624	1252.757690429688	237.7302703857423	-453.8767089843749	1315.572875976562	233.8493194580079	-444.1351318359374	1182.273681640625	60.70492935180673	-376.1258850097656	1355.711303710938	19.03095626831065	-445.4453125	1393.272583007812	29.32293510437019	-338.3389892578125	
243	0.968	1550.273803710938	1753.379028320312	-364.7670898437496	1491.036499023438	1702.519775390625	-285.8632202148434	1490.761840820312	1704.498657226562	-434.0289611816402	1351.407836914062	1533.371948242188	-363.1795654296872	1279.502197265625	1337.2021484375	-293.5798339843747	1281.50244140625	1340.71435546875	-438.9633178710935	1531.441284179688	1373.798461914062	-355.725402832031	1421.521362304688	1489.249145507812	-187.7458496093747	1368.833862304688	1332.976806640625	-95.51010131835908	1424.922729492188	1244.227783203125	-85.70717620849582	1303.865966796875	1253.761596679688	-85.9904022216794	1344.058471679688	1145.211181640625	-72.71846008300756	1323.993774414062	1140.863037109375	-153.536193847656	1438.946533203125	957.7222290039062	-68.52375030517557	1474.6171875	891.4187622070312	-109.2600784301756	1408.016357421875	869.1651611328125	-68.88909912109355	1475.914428710938	800.9341430664062	-56.39358901977521	1439.234741210938	1487.441650390625	-525.6072387695309	1426.121704101562	1321.402709960938	-624.5798950195309	1487.559326171875	1240.375	-617.036193847656	1369.595458984375	1243.872436523438	-655.3778686523435	1429.073120117188	1139.814453125	-657.231262207031	1371.569946289062	1131.973022460938	-605.2216796874998	1549.067626953125	977.1470336914064	-614.4371948242185	1580.196899414062	924.4872436523439	-556.5637207031248	1545.2685546875	892.3576660156251	-619.9976806640623	1627.906982421875	848.8044433593751	-594.5706787109373	1424.168701171875	1087.580078125	-188.6012725830076	1294.425415039062	1055.550903320312	-354.9028015136716	1416.833740234375	1080.231201171875	-530.5417480468748	1386.697021484375	933.725830078125	-168.9323120117186	1505.253662109375	666.4431762695312	-184.2965850830077	1556.412719726562	696.9893188476562	-181.293243408203	1587.177856445312	597.329833984375	-208.6379089355467	1524.637084960938	588.0416870117188	-200.8959808349608	1487.857055664062	377.9944458007813	-194.7984771728515	1536.921630859375	345.2878417968751	-209.2290649414062	1514.00390625	263.5108337402344	-226.8763580322265	1453.879760742188	283.8919677734376	-215.0012969970703	1372.644775390625	83.77436828613288	-299.8344421386719	1524.728149414062	33.2951049804688	-211.8340454101562	1578.607055664062	44.74533081054694	-298.2930603027344	1380.672973632812	966.6701049804689	-533.5101318359373	1436.051025390625	673.4808959960939	-510.4604187011717	1384.905151367188	699.2744140625001	-526.6116943359374	1356.187377929688	599.8756103515626	-492.587677001953	1419.147705078125	594.9364624023439	-483.2072753906249	1330.546264648438	333.0348205566407	-470.7674865722656	1270.862426757812	322.2474975585939	-473.4423828124999	1253.040771484375	238.4221496582032	-453.8143310546874	1316.467407226562	234.0564575195313	-444.7971191406249	1182.614013671875	61.42031860351571	-375.7387390136719	1355.649536132812	19.02947807312022	-445.4456481933594	1392.773071289062	29.28497695922859	-339.5480651855469	
244	0.972	1555.977294921875	1752.8876953125	-364.4960327148434	1496.741821289062	1701.854736328125	-285.7691650390621	1496.697265625	1704.08740234375	-433.9922180175777	1357.02490234375	1532.94287109375	-363.2987365722653	1284.902465820312	1336.694213867188	-293.843322753906	1286.930541992188	1340.085205078125	-439.0357666015622	1536.917114257812	1373.311157226562	-355.6302795410153	1426.746337890625	1488.6748046875	-187.674392700195	1373.740966796875	1332.446411132812	-95.73438262939423	1429.736572265625	1243.6396484375	-85.67392730712864	1308.735473632812	1253.260986328125	-86.33205413818331	1348.544677734375	1144.579956054688	-72.96488952636693	1328.934204101562	1140.508422851562	-153.7717285156247	1443.351440429688	957.2658081054688	-68.33155059814432	1479.217041015625	890.89990234375	-108.7220382690428	1412.537109375	868.7687377929688	-68.80651092529277	1480.2275390625	800.5393676757812	-55.93119049072248	1444.919189453125	1487.087158203125	-525.6835937499997	1432.26171875	1320.87646484375	-624.6043090820309	1493.783081054688	1239.855834960938	-616.8115234374998	1376.05859375	1243.383056640625	-655.763244628906	1435.906982421875	1139.411499023438	-657.735656738281	1377.795043945312	1131.457885742188	-605.6964111328123	1556.249267578125	977.0889282226564	-613.8895263671873	1587.412231445312	924.8527832031251	-555.7624511718748	1552.850463867188	892.3541870117189	-619.1742553710935	1635.581298828125	849.2929687500001	-593.3084716796873	1429.765380859375	1086.892333984375	-188.3994293212888	1300.042846679688	1054.931640625	-354.9139404296873	1422.227416992188	1079.86376953125	-530.548889160156	1392.71923828125	933.21435546875	-168.9838562011717	1511.763305664062	665.9548950195312	-184.5624084472655	1562.821044921875	696.6332397460938	-181.4035644531249	1593.758544921875	597.4219360351562	-209.2129058837889	1531.239501953125	587.876220703125	-201.5191345214842	1498.261352539062	376.5162658691407	-195.2531127929687	1548.059326171875	345.0607604980469	-209.540313720703	1527.189453125	262.7413635253907	-226.7917938232421	1466.650512695312	281.5420532226563	-215.4778442382812	1390.087768554688	78.89548492431648	-299.4203796386719	1543.31494140625	31.95074653625493	-212.0931701660156	1597.071044921875	44.3767051696778	-298.70458984375	1385.588745117188	966.3132934570314	-533.279113769531	1438.44287109375	673.4639282226564	-510.9995117187498	1387.418823242188	699.5133056640626	-527.0909423828124	1357.741943359375	600.1933593750001	-492.6986389160155	1420.892456054688	594.7880249023439	-483.6441955566405	1330.94775390625	333.3999938964845	-470.9155578613281	1271.242065429688	322.759490966797	-473.4680786132812	1253.278930664062	238.9896392822267	-453.6714477539062	1316.734130859375	234.3772125244141	-444.9962768554687	1182.73095703125	62.10219192504891	-375.684326171875	1355.543579101562	19.02521896362315	-445.4781799316406	1391.923950195312	28.63562202453621	-339.3898620605469	
